HIERARCHY
ROOT ui
{
	 OFFSET 0 0 0
	 CHANNELS 3 XPosition YPosition Z Position
	 EndSite
	 {
	 OFFSET 0 -1 0
	 }
}
ROOT li
{
	 OFFSET 0 0 0
	 CHANNELS 3 XPosition YPosition Z Position
	 EndSite
	 {
	 OFFSET 0 -1 0
	 }
}
ROOT ul
{
	 OFFSET 0 0 0
	 CHANNELS 3 XPosition YPosition Z Position
	 EndSite
	 {
	 OFFSET 0 -1 0
	 }
}
ROOT ll
{
	 OFFSET 0 0 0
	 CHANNELS 3 XPosition YPosition Z Position
	 EndSite
	 {
	 OFFSET 0 -1 0
	 }
}
ROOT tt
{
	 OFFSET 0 0 0
	 CHANNELS 3 XPosition YPosition Z Position
	 EndSite
	 {
	 OFFSET 0 -1 0
	 }
}
ROOT tb
{
	 OFFSET 0 0 0
	 CHANNELS 3 XPosition YPosition Z Position
	 EndSite
	 {
	 OFFSET 0 -1 0
	 }
}
ROOT td
{
	 OFFSET 0 0 0
	 CHANNELS 3 XPosition YPosition Z Position
	 EndSite
	 {
	 OFFSET 0 -1 0
	 }
}
ROOT v
{
	 OFFSET 0 0 0
	 CHANNELS 3 XPosition YPosition Z Position
	 EndSite
	 {
	 OFFSET 0 -1 0
	 }
}
ROOT bn
{
	 OFFSET 0 0 0
	 CHANNELS 3 XPosition YPosition Z Position
	 EndSite
	 {
	 OFFSET 0 -1 0
	 }
}
MOTION
Frames: 19
Frame Time: 0.002
0.013354721069335938	-6.71740025281906E-5	0		0.5179422607421875	-2.342671875	0		-0.9631434936523438	0.28201123046875	0		-0.31682443237304686	-2.625997802734375	0		1.906969970703125	0.021830495834350587	0		3.45066162109375	0.41652645874023436	0		4.72192919921875	0.30062844848632814	0		5.876626953125	0.23573703002929688	0		-0.2710887451171875	5.8803984375	0		
-0.01479877281188965	-0.0016658389568328857	0		0.5178350830078124	-2.342726806640625	0		-0.9683350219726562	0.27802801513671876	0		-0.2850158996582031	-2.631583740234375	0		1.9001090087890624	0.03789856719970703	0		3.445649658203125	0.42357427978515627	0		4.736685546875	0.2933591613769531	0		5.88873291015625	0.24560591125488282	0		-0.37624240112304685	5.88206201171875	0		
-0.01490347385406494	-0.0017390730381011963	0		0.5296392822265625	-2.349990234375	0		-1.0243203125	0.2858623657226563	0		-0.34890301513671873	-2.619611083984375	0		1.89328369140625	0.054958637237548826	0		3.463505126953125	0.42124343872070313	0		4.733775390625	0.30538497924804686	0		5.8803232421875	0.2787958679199219	0		-0.24015017700195312	5.8967509765625	0		
0.017109189987182617	0.003648447036743164	0		0.534704833984375	-2.343152587890625	0		-0.9434986572265625	0.27943389892578124	0		-0.30990380859375	-2.6173427734375	0		1.9423917236328125	0.06609337615966797	0		3.477973388671875	0.45497100830078124	0		4.75780078125	0.31197003173828125	0		5.8924599609375	0.288684326171875	0		-0.22711921691894532	5.90844580078125	0		
0.017055360794067383	0.003548621892929077	0		0.5258392333984375	-2.334097412109375	0		-1.0193995361328125	0.28956134033203124	0		-0.30991339111328126	-2.617447998046875	0		1.9356160888671874	0.08313841247558594	0		3.467798583984375	0.4480943298339844	0		4.748759765625	0.31309750366210937	0		5.88942919921875	0.2680391540527344	0		-0.24241810607910155	5.8995888671875	0		
0.012966935157775878	-4.983679950237275E-4	0		0.4942083740234375	-2.312679931640625	0		-0.9535682373046875	0.28034991455078123	0		-0.33565411376953125	-2.603143798828125	0		1.964603515625	0.08358776092529296	0		3.477879638671875	0.454883056640625	0		4.75074609375	0.3140425109863281	0		5.88156884765625	0.2683497619628906	0		-0.3749133605957031	5.87863330078125	0		
-0.015055514335632325	-0.002167220115661621	0		0.4942631225585937	-2.31279638671875	0		-1.0285576171875	0.281428466796875	0		-0.3355932922363281	-2.603277587890625	0		1.959690673828125	0.08858295440673829	0		3.491874755859375	0.4546001281738281	0		4.758728515625	0.31288427734375	0		5.88108349609375	0.30123626708984375	0		-0.24168794250488282	5.89832275390625	0		
0.009959168434143066	-0.0037160940170288086	0		0.49638101196289064	-2.310959228515625	0		-1.0185471801757813	0.28010186767578127	0		-0.3575962829589844	-2.609066162109375	0		1.948099853515625	0.1116783218383789	0		3.496126953125	0.4684696044921875	0		4.77694921875	0.3245537109375	0		5.89102294921875	0.29044403076171876	0		-0.3609480285644531	5.88911962890625	0		
-0.011912820816040039	4.872559905052185E-4	0		0.4486641235351562	-2.30032177734375	0		-1.05142431640625	0.28446038818359376	0		-0.3632303161621094	-2.594133544921875	0		1.947320068359375	0.12158402252197266	0		3.519254150390625	0.4730211181640625	0		4.7969990234375	0.3241846923828125	0		5.895908203125	0.2677297668457031	0		-0.2408950653076172	5.896	0		
0.008233168601989745	0.003992734909057617	0		0.5007161560058594	-2.30632421875	0		-1.0133528442382813	0.28364801025390624	0		-0.36511514282226565	-2.596278076171875	0		1.9745760498046876	0.13202294921875	0		3.5426484375	0.4925626525878906	0		4.79707470703125	0.32413446044921873	0		5.90260791015625	0.3003018798828125	0		-0.24095668029785156	5.895826171875	0		
-0.01477164077758789	-0.002814120054244995	0		0.4489700622558594	-2.30064892578125	0		-1.0132542114257812	0.28344012451171874	0		-0.3330271911621094	-2.601988037109375	0		1.9738572998046875	0.14290748596191405	0		3.54662744140625	0.4854090576171875	0		4.8151533203125	0.32278530883789064	0		5.90752685546875	0.2775692138671875	0		-0.3753110046386719	5.87781689453125	0		
0.01338466453552246	-0.0014632370471954347	0		0.49904074096679685	-2.308640869140625	0		-1.01819873046875	0.2792994079589844	0		-0.3796598205566406	-2.591430908203125	0		1.9970751953125	0.14839360046386718	0		3.54285546875	0.4923760681152344	0		4.8052734375	0.3228853759765625	0		5.90484765625	0.2897344665527344	0		-0.3743614807128906	5.87659619140625	0		
-0.01449536895751953	-0.003216413974761963	0		0.4504099426269531	-2.299041015625	0		-1.0391527099609374	0.27340283203125	0		-0.36451718139648437	-2.596891357421875	0		1.9994619140625	0.16321156311035157	0		3.574952880859375	0.4897566223144531	0		4.81339501953125	0.3216916809082031	0		5.91714794921875	0.29958224487304685	0		-0.22495367431640625	5.901962890625	0		
0.017767011642456056	0.002046807050704956	0		0.50664794921875	-2.3001494140625	0		-1.063795166015625	0.2855521240234375	0		-0.360197998046875	-2.593187255859375	0		2.0108507080078124	0.17687925720214845	0		3.560657470703125	0.5238935546875	0		4.822779296875	0.33548440551757813	0		5.92646044921875	0.2870697326660156	0		-0.22594613647460937	5.9037529296875	0		
-0.011087583541870118	-7.140780091285706E-4	0		0.4809591064453125	-2.297941162109375	0		-0.9916895141601563	0.2801236572265625	0		-0.33884979248046876	-2.589768798828125	0		2.0110341796875	0.17672477722167967	0		3.565505126953125	0.5037187194824219	0		4.8429541015625	0.3351121826171875	0		5.919478515625	0.28906338500976564	0		-0.2401348876953125	5.8937421875	0		
0.009183895111083985	0.00272489595413208	0		0.5041496887207031	-2.3055283203125	0		-1.03455029296875	0.27653509521484376	0		-0.38333285522460936	-2.5772998046875	0		2.01530029296875	0.18050564575195313	0		3.57480517578125	0.5104839782714844	0		4.83315087890625	0.3352372741699219	0		5.92626611328125	0.3216956787109375	0		-0.24115596008300783	5.89450927734375	0		
-0.010649412155151368	-0.001200613021850586	0		0.48056893920898436	-2.30036767578125	0		-1.0004032592773437	0.2716954650878906	0		-0.34224575805664065	-2.5942197265625	0		2.0236954345703126	0.1912232208251953	0		3.61198876953125	0.5088112182617187	0		4.8433623046875	0.33505584716796877	0		5.9264306640625	0.3217480163574219	0		-0.40287136840820315	5.8538369140625	0		
0.011529869079589843	-0.005806439876556396	0		0.48093341064453127	-2.300597412109375	0		-1.062115478515625	0.27537954711914064	0		-0.3826053466796875	-2.5778388671875	0		2.022899658203125	0.18908937072753906	0		3.598545654296875	0.5299639282226563	0		4.84359130859375	0.3350510559082031	0		5.9286787109375	0.31137542724609374	0		-0.2402769012451172	5.89296826171875	0		
0.013983058929443359	0.005900249004364013	0		0.45843988037109373	-2.293465576171875	0		-1.056805908203125	0.27897882080078124	0		-0.3801659851074219	-2.576153076171875	0		2.0452120361328125	0.19259239196777345	0		3.616536865234375	0.5146220703125	0		4.8538330078125	0.33490499877929686	0		5.93621630859375	0.3440954895019531	0		-0.24034779357910158	5.8926943359375	0		
